<svg xmlns="http://www.w3.org/2000/svg" viewBox="0 0 64 64" role="img" aria-label="Process Location">
  <defs>
    <linearGradient id="location-process-bg" x1="14" y1="8" x2="50" y2="56" gradientUnits="userSpaceOnUse">
      <stop offset="0" stop-color="#38bdf8"/>
      <stop offset="1" stop-color="#075985"/>
    </linearGradient>
  </defs>
  <circle cx="32" cy="32" r="29" fill="url(#location-process-bg)"/>
  <circle cx="32" cy="32" r="27" fill="none" stroke="#fff" stroke-width="2" opacity="0.42"/>
  <path d="M32 54s17-16.3 17-31A17 17 0 0 0 15 23c0 14.7 17 31 17 31z" fill="#fff" stroke="#111827" stroke-width="3" stroke-linejoin="round"/>
  <rect x="20" y="18" width="11" height="10" rx="3" fill="#075985"/>
  <rect x="34" y="18" width="11" height="10" rx="3" fill="#075985"/>
  <rect x="27" y="34" width="11" height="10" rx="3" fill="#075985"/>
  <path d="M31.5 23h2.5M39.5 28v3.5c0 3-2.4 5.5-5.5 5.5h-1" fill="none" stroke="#075985" stroke-width="3" stroke-linecap="round" stroke-linejoin="round"/>
  <path d="M21 51h22" stroke="#111827" stroke-width="2.5" stroke-linecap="round" opacity="0.55"/>
</svg>
