<svg xmlns="http://www.w3.org/2000/svg" viewBox="0 0 64 64" role="img" aria-label="Process">
  <defs>
    <linearGradient id="process-bg" x1="14" y1="8" x2="50" y2="56" gradientUnits="userSpaceOnUse">
      <stop offset="0" stop-color="#34d399"/>
      <stop offset="1" stop-color="#047857"/>
    </linearGradient>
  </defs>
  <circle cx="32" cy="32" r="29" fill="url(#process-bg)"/>
  <circle cx="32" cy="32" r="27" fill="none" stroke="#fff" stroke-width="2" opacity="0.42"/>
  <path d="M29.5 24h5.5M42.5 30v3.4c0 3.5-2.8 6.3-6.3 6.3H35" fill="none" stroke="#fff" stroke-width="6" stroke-linecap="round" stroke-linejoin="round" opacity="0.95"/>
  <path d="M29.5 24h5.5M42.5 30v3.4c0 3.5-2.8 6.3-6.3 6.3H35" fill="none" stroke="#111827" stroke-width="2.4" stroke-linecap="round" stroke-linejoin="round"/>
  <rect x="13.5" y="16.5" width="16" height="14" rx="4" fill="#fff" stroke="#111827" stroke-width="2.7"/>
  <rect x="34.5" y="16.5" width="16" height="14" rx="4" fill="#fff" stroke="#111827" stroke-width="2.7"/>
  <rect x="24" y="36.5" width="16" height="14" rx="4" fill="#fff" stroke="#111827" stroke-width="2.7"/>
  <circle cx="21.5" cy="23.5" r="2.5" fill="#047857"/>
  <circle cx="42.5" cy="23.5" r="2.5" fill="#047857"/>
  <circle cx="32" cy="43.5" r="2.5" fill="#047857"/>
  <path d="M30 39.8l4 3.7-4 3.7" fill="none" stroke="#047857" stroke-width="2.4" stroke-linecap="round" stroke-linejoin="round"/>
</svg>
